<svg xmlns="http://www.w3.org/2000/svg" xmlns:xlink="http://www.w3.org/1999/xlink" fill="none" version="1.1" width="604" height="433" viewBox="0 0 604 433"><defs><linearGradient x1="6.014975042489823e-7" y1="-0.34821629524230957" x2="6.526486396789551" y2="-0.34821629524230957" id="master_svg0_1_91"><stop offset="0%" stop-color="#D0E6A5" stop-opacity="1"/><stop offset="100%" stop-color="#FFDD94" stop-opacity="1"/></linearGradient><linearGradient x1="-0.8227551579475403" y1="-0.34821632504463196" x2="3.849844455718994" y2="-0.34821632504463196" id="master_svg1_1_92"><stop offset="0%" stop-color="#D0E6A5" stop-opacity="1"/><stop offset="100%" stop-color="#FFDD94" stop-opacity="1"/></linearGradient><linearGradient x1="-2.200528144836426" y1="-0.34821653366088867" x2="3.1090590953826904" y2="-0.34821653366088867" id="master_svg2_1_93"><stop offset="0%" stop-color="#D0E6A5" stop-opacity="1"/><stop offset="100%" stop-color="#FFDD94" stop-opacity="1"/></linearGradient><linearGradient x1="-3.5669808387756348" y1="-0.34821632504463196" x2="2.1283016204833984" y2="-0.34821632504463196" id="master_svg3_1_94"><stop offset="0%" stop-color="#D0E6A5" stop-opacity="1"/><stop offset="100%" stop-color="#FFDD94" stop-opacity="1"/></linearGradient><linearGradient x1="-4.314260482788086" y1="-0.3482164144515991" x2="1.0000003576278687" y2="-0.3482164144515991" id="master_svg4_1_95"><stop offset="0%" stop-color="#D0E6A5" stop-opacity="1"/><stop offset="100%" stop-color="#FFDD94" stop-opacity="1"/></linearGradient><linearGradient x1="-0.35248565673828125" y1="1.0025969743728638" x2="1.3524855375289917" y2="1.0025969743728638" id="master_svg5_1_96"><stop offset="0%" stop-color="#D0E6A5" stop-opacity="1"/><stop offset="100%" stop-color="#FFDD94" stop-opacity="1"/></linearGradient></defs><g><g><path d="M43.0314,354.61310000000003C33.3124,351.7285,25.973,348.0054,21.013,343.44370000000004C16.053,338.8821,12.5843,334.203,10.607,329.4066C8.62971,324.6101,7.64106,319.5285,7.64106,314.1619C7.64106,307.5877,8.88107,301.6341,11.3611,296.3009C13.8411,290.9678,17.494,286.2216,22.32,282.0625L22.2194,282.0625C29.9276,275.35414,38.9762,272,49.3654,272C52.7168,272,56.0681,272.419282,59.4195,273.25779C62.7708,274.09635,66.0049,275.37094,69.1216,277.08156C72.2384,278.79218,75.1541,280.92207,77.8687,283.4713C80.5833,286.0204,83.013,289.0056,85.1579,292.4269C86.1633,294.171,86.666,296.0829,86.666,298.1625C86.666,299.7054,86.3979,301.1141,85.8616,302.3887C85.3254,303.6633,84.5714,304.7869,83.5995,305.7597C82.6276,306.7324,81.4881,307.4871,80.1811,308.0237C78.8741,308.5604,77.4832,308.8288,76.0086,308.8288C74.6681,308.8288,73.4784,308.6275,72.4395,308.225C71.4005,307.8225,70.4621,307.2523,69.6243,306.5144C68.7865,305.7765,67.9822,304.9212,67.2113,303.9485C66.4405,302.9758,65.6194,301.8521,64.7481,300.5775C63.1394,298.2296,60.9443,296.4687,58.1627,295.2947C55.3811,294.1207,52.3816,293.5337,49.1643,293.5337C46.6173,293.5337,44.1373,294.0537,41.7243,295.0934C39.3113,296.1332,37.1665,297.5588,35.2897,299.37C33.4129,301.1812,31.8881,303.3279,30.7151,305.81C29.5421,308.2921,28.9556,310.9754,28.9556,313.86C28.9556,319.0254,30.38,323.1007,33.2286,326.0859C36.0773,329.0711,40.987,331.57,47.9578,333.5825C59.7546,336.9367,69.0043,341.5654,75.707,347.4687C82.4097,353.372,86.9676,359.1748,89.3805,364.8769C91.7935,370.579,93,376.58299999999997,93,382.889C93,398.586,87.2021,411.332,75.6065,421.126L75.707,421.126C66.3903,429.04200000000003,55.8,433,43.9362,433C39.9816,433,36.027,432.514,32.0724,431.541C28.1179,430.568,24.3141,429.14300000000003,20.6611,427.264C17.0081,425.38599999999997,13.5897,423.038,10.4059,420.221C7.22216,417.403,4.45729,414.217,2.11135,410.661C0.703794,408.85,0,406.703,0,404.221C0,402.745,0.268119,401.353,0.804329,400.04499999999996C1.34054,398.73699999999997,2.09461,397.597,3.06649,396.624C4.03838,395.651,5.16109,394.897,6.43459,394.36C7.70811,393.823,9.11567,393.555,10.6573,393.555C14.6119,393.555,17.5946,395.199,19.6054,398.486C22.4205,402.846,25.9395,406.13300000000004,30.1622,408.347C34.3849,410.56100000000004,38.9427,411.668,43.8357,411.668C47.6562,411.668,51.2589,410.913,54.6438,409.403C58.0287,407.894,60.9779,405.865,63.4914,403.31600000000003C66.0049,400.76599999999996,67.9989,397.765,69.4735,394.31C70.9481,390.855,71.6854,387.182,71.6854,383.291C71.6854,379.602,70.9984,376.13,69.6243,372.877C68.2503,369.6231,65.6027,366.4031,61.6816,363.21659999999997C57.7605,360.0302,51.5438,357.1623,43.0314,354.61310000000003Z" fill="url(#master_svg0_1_91)" fill-opacity="1"/></g><g><path d="M126.52629999999999,426.459C124.4469,430.82,121.16,433,116.6657,433C115.12284,433,113.71418,432.73199999999997,112.43966,432.195C111.16515,431.658,110.04158,430.904,109.06892,429.93100000000004C108.09626,428.95799999999997,107.34163,427.83500000000004,106.804972,426.56C106.268343,425.28499999999997,106,423.877,106,422.334C106,420.925,106.301857,419.483,106.905572,418.007L160.8374,279.44626C162.984,274.48209,166.3715,272,171,272C175.6285,272,179.01600000000002,274.48209,181.1625,279.44626L235.094,418.007C235.698,419.416,236,420.858,236,422.334C236,423.877,235.732,425.28499999999997,235.195,426.56C234.658,427.83500000000004,233.904,428.95799999999997,232.93099999999998,429.93100000000004C231.958,430.904,230.81799999999998,431.658,229.51,432.195C228.202,432.73199999999997,226.81,433,225.334,433C220.639,433,217.31799999999998,430.82,215.373,426.459L171,312.1494L126.52629999999999,426.459Z" fill="url(#master_svg1_1_92)" fill-opacity="1"/></g><g><path d="M271.2559,282.6663L271.2559,375.744C271.2559,380.642,272.1917,385.27,274.0633,389.631C275.93489999999997,393.991,278.4749,397.798,281.6833,401.052C284.8918,404.305,288.6684,406.88800000000003,293.0131,408.8C297.3579,410.712,302.00350000000003,411.668,306.9498,411.668C311.8962,411.668,316.5417,410.728,320.8865,408.85C325.23130000000003,406.972,329.0246,404.389,332.2665,401.102C335.5084,397.815,338.06510000000003,394.008,339.9367,389.681C341.80830000000003,385.354,342.7441,380.709,342.7441,375.744L342.7441,282.6663C342.7441,279.71463,343.7801,277.19899,345.8523,275.11944C347.9244,273.03983,350.431,272.0000569522,353.372,272.0000569522C356.313,272.0000569522,358.82,273.03983,360.892,275.11944C362.964,277.19905,364,279.71463,364,282.6663L364,375.744C364,380.977,363.315,386.008,361.945,390.83799999999997C360.574,395.668,358.653,400.21299999999997,356.179,404.473C353.706,408.733,350.73199999999997,412.60699999999997,347.2559,416.095C343.7801,419.58299999999997,339.92,422.58500000000004,335.6755,425.101C331.431,427.61699999999996,326.8857,429.562,322.0396,430.937C317.1935,432.312,312.1636,433,306.9499,433C291.175,433,277.7731,427.399,266.7441,416.196C255.58135,404.993,250,391.509,250,375.744L250,282.6662C250,279.71457,251.03607,277.19894,253.10816,275.11938C255.18028,273.03978,257.68689,272,260.628,272C263.569,272,266.0756,273.03978,268.1477,275.11938C270.2199,277.19899,271.2559,279.71457,271.2559,282.6663Z" fill="url(#master_svg2_1_93)" fill-opacity="1"/></g><g><path d="M399.4,293.3326L399.4,349.5819L427.6641,349.5819C431.5673,349.5819,435.2349,348.844,438.66700000000003,347.3682C442.099,345.8923,445.0769,343.86310000000003,447.6005,341.2804C450.1241,338.6977,452.1261,335.7125,453.6066,332.3248C455.0871,328.9371,455.8274,325.33140000000003,455.8274,321.5077C455.8274,317.6168,455.0871,313.9608,453.6066,310.5395C452.1261,307.1183,450.1073,304.1331,447.55,301.58389999999997C444.9928,299.0347,441.9981,297.0223,438.5661,295.5464C435.134,294.0706,431.5001,293.3327,427.6642,293.3327L399.4,293.3326ZM378,422.334L378,282.6663C378,281.19043,378.269208,279.79846,378.807566,278.49033C379.34592,277.18219,380.10299,276.04178,381.07881,275.0691C382.05457,274.09641,383.18179,273.34168,384.46041,272.805019C385.73904,272.268359,387.1522,272,388.7,272L427.6642,272C434.4611,272,440.871,273.30813,446.89390000000003,275.9244C452.9169,278.54067,458.16589999999997,282.0961,462.6411,286.5906C467.1163,291.0852,470.66610000000003,296.3345,473.2906,302.3384C475.9151,308.3424,477.2274,314.7321,477.2274,321.5075C477.2274,325.935,476.6722,330.2451,475.5619,334.4378C474.4515,338.6305,472.8028,342.5884,470.6156,346.3115C468.4285,350.0347,465.703,353.4894,462.4392,356.6759C459.1753,359.8624,455.39,362.6631,451.08299999999997,365.0781L483.284,416.497C484.428,418.376,485,420.321,485,422.334C485,423.877,484.731,425.28499999999997,484.192,426.56C483.654,427.83500000000004,482.897,428.95799999999997,481.921,429.93100000000004C480.945,430.904,479.801,431.658,478.48900000000003,432.195C477.1769,432.73199999999997,475.7805,433,474.3,433C470.5314,433,467.4695,431.256,465.1141,427.76800000000003L429.48109999999997,370.9144L399.4,370.9144L399.4,422.334C399.4,425.28499999999997,398.3569,427.801,396.2708,429.881C394.1846,431.96000000000004,391.661,433,388.7,433C385.73904,433,383.21544,431.96000000000004,381.12931,429.881C379.04312,427.801,378.0000571324,425.28499999999997,378,422.334Z" fill="url(#master_svg3_1_94)" fill-opacity="1"/></g><g><path d="M510.0987,276.42752L547.5001,333.0794L584.9014999999999,276.42752C586.9572000000001,273.47586,589.8419,272,593.5550000000001,272C596.473,272,598.944,273.03978,600.966,275.11938C602.989,277.19899,604,279.71457,604,282.6662C604,285.0812,603.469,287.0938,602.408,288.7037L558.044,355.72L558.044,422.334C558.044,425.28499999999997,557.0161,427.801,554.9604,429.881C552.9046,431.96000000000004,550.4177999999999,433,547.5,433C544.6485,433,542.1782,431.96000000000004,540.0894,429.881C538.0004,427.801,536.956,425.28499999999997,536.956,422.334L536.956,355.72L492.69101,288.7037C491.563671,286.9596,491,284.9471,491,282.6662C491,279.71457,492.02786,277.19894,494.08364,275.11938C496.13941,273.03978,498.62616,272,501.544,272C505.2576,272,508.1091,273.47586,510.0987,276.42752Z" fill="url(#master_svg4_1_95)" fill-opacity="1"/></g><g><path d="M449.244,17.4055L465.252,17.4055C472.833,17.4055,479,23.5697,479,31.1464L479,196.585C479,204.166,472.829,210.33,465.249,210.33L337.36400000000003,204.28L337.36400000000003,215L327.553,208.695L317.039,215L317.039,203.319L309.39599999999996,202.953L293.099,202.86L138.9697,210.322L138.9623,210.322C131.16352,210.322,125,204.162,125,196.585L125,31.1464C125,23.566,131.16723,17.4018,138.7514,17.4018L154.7559,17.4018C171.75560000000002,11.5852,201.6928,2.42944,227.33499999999998,0.295824C229.684,0.099838,232.029,0,234.301,0C255.47,0,268.911,8.26454,279.71000000000004,14.9057C285.592,18.5222,290.676,21.6394,295.159,21.9944L299.45500000000004,22.1904L304.937,22.1904L308.837,21.9981C313.321,21.6505,318.408,18.5295,324.28999999999996,14.9094C335.09299999999996,8.2682,348.526,0.00369037,369.699,0.00369037C371.971,0.00369037,374.312,0.103528,376.66499999999996,0.299514C402.307,2.43313,432.244,11.5851,449.244,17.4055ZM234.301,9.16314C232.281,9.16314,230.191,9.25188,228.09699999999998,9.42568C197.14589999999998,12.0067,158.2668,25.7403,147.438,29.7524L147.438,188.905C162.0848,181.554,197.54919999999998,165.184,227.338,162.702C229.49200000000002,162.521,231.648,162.432,233.739,162.432C255.256,162.432,269.414,172.05,279.747,179.065C283.639,181.709,287.179,184.116,290.409,185.551L290.409,30.4438C285.278,29.0905,280.387,26.0805,274.908,22.7118C264.582,16.359,252.877,9.16314,234.301,9.16314ZM369.699,9.16314C351.12,9.16314,339.418,16.3627,329.092,22.7118C323.61699999999996,26.0805,318.722,29.0868,313.591,30.4402L313.591,185.303C313.831,185.262,314.075,185.222,314.327,185.181C317.36400000000003,183.724,320.653,181.513,324.257,179.065C334.59299999999996,172.05,348.752,162.432,370.265,162.432C372.35900000000004,162.432,374.50800000000004,162.521,376.66499999999996,162.702C406.458,165.184,441.919,181.554,456.569,188.905L456.569,29.7523C445.733,25.7403,406.854,12.003,375.903,9.42566C373.80600000000004,9.25186,371.719,9.16312,369.699,9.16314ZM134.16755,31.1501L134.16755,196.589C134.16755,198.944,135.9655,200.875,138.263,201.119L138.263,26.6167C135.9692,26.8644,134.16755,28.791,134.16755,31.1501ZM465.733,201.144C467.931,200.982,469.832,199.015,469.832,196.589L469.832,31.1501C469.832,28.7872,468.031,26.8607,465.733,26.6167L465.733,201.144ZM228.09300000000002,171.832C212.18099999999998,173.156,194.127,178.902,178.9179,184.896C191.0045,182.611,204.2972,180.588,216.2765,179.86C233.247,178.821,253.017,180.518,268.193,182.404C259.251,176.732,248.71800000000002,171.596,233.731,171.596C231.893,171.596,229.998,171.669,228.09300000000002,171.832ZM370.26099999999997,171.595C355.589,171.595,345.193,176.521,336.369,182.049C351.097,180.311,369.459,178.887,385.356,179.856C398.885,180.681,414.083,183.155,427.328,185.795C411.678,179.483,392.607,173.223,375.899,171.832C373.998,171.673,372.1,171.595,370.26099999999997,171.595ZM284.967,194.093C272.155,192,241.012,187.525,216.8388,189.005C193.40179999999998,190.436,163.9013,197.206,150.2164,200.612L284.967,194.093ZM384.797,189.005C369.63599999999997,188.084,351.76,189.496,337.36400000000003,191.194L337.361,191.194L337.361,195.117L450.887,200.483C436.987,197.04,407.927,190.417,384.797,189.005ZM317.039,194.048C316.969,194.074,316.902,194.111,316.83500000000004,194.141L317.039,194.156L317.039,194.048ZM459.747,200.9L459.533,200.782L459.507,200.889L459.747,200.9Z" fill-rule="evenodd" fill="url(#master_svg5_1_96)" fill-opacity="1"/></g></g></svg>